<svg width="198" height="95" viewBox="0 0 198 95" fill="none" xmlns="http://www.w3.org/2000/svg">
<path d="M2.13719 2.02344H12.6258C13.0061 2.02344 13.3664 2.23422 13.5765 2.57547L45.0623 54.7172C45.0623 54.7172 50.6769 62.827 54.4199 54.7172C58.163 48.6348 59.1037 49.6486 57.2322 47.6211C55.6009 45.8546 36.8155 13.1343 32.0917 4.89399C31.6213 4.081 32.1717 3.02713 33.0525 3.02713H43.531C43.9013 3.02713 44.2516 3.22787 44.4618 3.55909C47.9046 8.97902 51.3774 14.3789 54.8703 19.7687C58.3431 25.1485 61.9861 30.2372 64.8284 36.0586C64.9385 36.2895 65.0686 36.5303 65.2788 36.6407C65.6991 36.8616 66.1595 36.4701 66.4798 36.0988C68.3713 33.8706 69.7124 31.1606 71.604 28.9324C76.8382 22.7497 85.4053 21.3345 91.9206 25.9012C96.7445 29.2837 100.147 34.5631 103.07 39.9228C107.593 48.2334 112.307 56.4135 117.021 64.5835C120.864 71.2279 124.067 79.4682 130.242 83.9849C131.943 85.2294 134.025 86.1729 136.027 85.6911C137.798 85.2595 139.289 83.7942 141.201 84.1454C141.821 84.2559 142.432 84.6573 142.662 85.2897C142.972 86.1428 142.502 87.0963 141.971 87.819C133.735 98.9098 120.144 90.0572 113.738 81.7366C109.125 75.7445 105.001 69.0198 100.908 62.6464C99.9371 61.1409 99.0064 59.3442 97.8754 57.8889C97.4351 57.3168 96.6244 57.2566 96.164 57.8086C94.6728 59.565 93.4518 62.4758 92.3509 64.2724C90.6796 66.9823 89.0082 69.6923 87.3468 72.3922C83.5938 78.4846 80.201 85.1592 74.9467 89.9367C71.4438 93.1285 66.5398 94.2727 62.0762 93.3694C59.8143 92.9077 57.6425 91.924 55.8211 90.3784C54.8803 89.5754 53.8294 88.2104 53.0088 86.7952C52.4883 85.8818 53.1989 84.7276 54.1797 84.9283C56.0112 85.3097 58.3131 85.5105 58.9536 85.5807C62.1863 85.9521 66.4197 85.0287 68.4814 82.0578C72.8149 75.8048 76.7382 69.2206 80.5012 62.546C83.5838 57.0759 86.5762 51.5456 89.5887 46.0353C90.009 45.2725 90.4294 44.4796 90.5394 43.6064C90.6896 42.3417 90.1391 41.1072 89.4285 40.0934C87.527 37.3835 84.8648 34.2118 81.382 35.6471C79.6405 36.3697 78.2894 37.8853 77.0884 39.431C72.5347 45.3126 69.6023 51.666 66.3697 58.4208C64.4081 62.536 61.836 66.5608 58.0429 68.6786C53.3791 71.2781 47.5343 70.4852 42.9505 67.7251C35.9949 63.5296 31.5913 55.4298 27.2477 48.5044C23.5447 42.6027 19.9818 36.6006 16.4589 30.5684C11.2446 21.756 6.17048 12.8432 1.16639 3.87023C0.706015 3.05724 1.25647 2.02344 2.13719 2.02344Z" fill="white" stroke="white" stroke-width="1.9435" stroke-miterlimit="10"/>
<path d="M195.746 1.01004H180.773C180.773 1.74273 179.402 3.36871 179.032 4.01107C178.341 5.19543 177.661 6.37978 176.97 7.5541C172.066 15.9851 167.072 24.6068 162.168 33.1382C159.916 37.1329 157.604 41.0874 155.333 45.062C153.101 48.9764 151.329 53.1518 148.577 56.7149C147.766 57.7587 146.816 58.8026 145.585 59.0736C144.194 59.3747 142.782 58.6219 141.671 57.6584C139.8 56.0324 137.888 53.3325 137.918 50.6125C137.938 48.4445 139.139 46.8285 140.17 45.1022C141.241 43.3156 142.172 41.3986 143.163 39.5518C145.795 34.6638 148.437 29.7658 151.069 24.8778C155.243 17.1394 159.416 9.39086 163.579 1.6524C163.699 1.43159 163.81 1.22081 163.93 1H150.829L130.242 37.4842C130.552 36.9723 125.738 28.2703 125.138 27.387C123.256 24.6771 121.445 21.9169 119.583 19.1869C115.57 13.2852 111.046 5.54672 104.511 2.81668C98.2259 0.187008 90.7999 1.48177 85.0252 4.96458C84.1645 5.47646 83.3138 6.06865 82.7533 6.93182C82.2929 7.62437 82.0527 8.4775 82.0527 9.33064C82.0527 9.71204 82.1128 10.1236 82.343 10.4146C82.8134 11.0269 83.6941 10.8964 84.4047 10.7157C88.3479 9.702 91.7507 9.10983 95.6438 10.7659C99.1767 12.2614 102.199 15.0517 104.381 18.394C109.065 25.5704 113.558 32.8572 117.552 40.4953C121.065 47.23 124.808 54.1856 129.221 60.288C132.754 65.176 137.448 69.4718 143.083 70.616C147.766 71.5695 152.64 70.1142 156.494 67.1533C159.656 64.7244 161.358 61.3319 163.379 57.829C165.601 53.9849 167.793 50.1307 169.975 46.2564C173.477 40.0135 176.91 33.7304 180.293 27.4071C183.616 21.1742 187.399 15.2223 190.972 9.1299C192.543 6.44001 194.134 3.72001 195.746 1.01004Z" fill="white" stroke="white" stroke-width="1.9435" stroke-miterlimit="10"/>
</svg>
