<svg width="91" height="40" viewBox="0 0 91 40" fill="none" xmlns="http://www.w3.org/2000/svg">
<path d="M0.548933 0.438042H5.44564C5.62 0.438042 5.79437 0.525656 5.88155 0.671671L20.5862 23.1871C20.5862 23.1871 23.2162 26.6915 24.9598 23.1871C26.7035 20.5589 27.1394 20.9969 26.2675 20.1208C25.4974 19.3615 16.7357 5.22732 14.5271 1.67916C14.3091 1.32873 14.5561 0.87609 14.9775 0.87609H19.8742C20.0486 0.87609 20.2084 0.963693 20.3101 1.10971C21.923 3.44594 23.5359 5.78218 25.1778 8.10381C26.8052 10.4254 28.5052 12.6303 29.8275 15.1417C29.8856 15.2439 29.9437 15.3461 30.0454 15.3899C30.2343 15.4776 30.4523 15.3169 30.6121 15.1563C31.4985 14.1926 32.1233 13.0245 33.0096 12.0608C35.4507 9.38874 39.4611 8.77548 42.4979 10.7467C44.7501 12.2068 46.3484 14.4847 47.6997 16.8063C49.8066 20.3982 52.0152 23.9318 54.2238 27.4508C56.0111 30.3126 57.5077 33.8754 60.3992 35.832C61.1984 36.3722 62.1574 36.7811 63.1018 36.5621C63.9301 36.3722 64.6275 35.7444 65.5139 35.8904C65.8045 35.9342 66.0951 36.1094 66.1968 36.3869C66.3421 36.7519 66.1241 37.1607 65.8771 37.482C62.0266 42.2713 55.6769 38.4457 52.6836 34.8537C50.5331 32.2692 48.6006 29.3635 46.6826 26.6039C46.2322 25.9468 45.7963 25.1729 45.2586 24.5451C45.0552 24.2968 44.6774 24.2676 44.4595 24.5159C43.762 25.2751 43.1953 26.5309 42.6722 27.3047C41.8876 28.4729 41.1175 29.641 40.3329 30.8091C38.5747 33.4374 36.9909 36.3284 34.5353 38.3873C32.8934 39.7598 30.6121 40.2562 28.5197 39.8766C27.459 39.6722 26.4419 39.2487 25.5992 38.5917C25.1632 38.2412 24.6692 37.6572 24.2914 37.0439C24.0444 36.6497 24.3786 36.1532 24.8436 36.2408C25.7009 36.4015 26.7761 36.4891 27.0812 36.5183C28.5924 36.6789 30.5685 36.2846 31.5275 34.9997C33.5472 32.2984 35.378 29.4512 37.1362 26.5747C38.5747 24.2092 39.9696 21.8292 41.3791 19.4491C41.5679 19.1133 41.7714 18.7775 41.815 18.3979C41.8876 17.8576 41.6261 17.3173 41.2919 16.8793C40.4055 15.7112 39.1559 14.3386 37.5285 14.9665C36.7148 15.2731 36.0755 15.9302 35.5233 16.6019C33.4019 19.1425 32.0215 21.8876 30.5104 24.8079C29.595 26.5893 28.389 28.3268 26.6163 29.2321C24.4367 30.3565 21.705 30.0206 19.5691 28.8233C16.3143 27.0127 14.2655 23.523 12.2313 20.5297C10.5022 17.9744 8.8312 15.3899 7.18928 12.7909C4.77725 8.9653 2.39428 5.12512 0.0549032 1.24113C-0.11946 0.890692 0.142085 0.438042 0.548933 0.438042Z" fill="white"/>
<path d="M90.9999 0H84.0109C84.0109 0.321232 83.3715 1.0221 83.1972 1.29953C82.8775 1.81058 82.5578 2.32164 82.2382 2.83269C79.9424 6.46845 77.6175 10.1918 75.3218 13.8714C74.2756 15.5944 73.1858 17.3027 72.1251 19.0257C71.0789 20.7195 70.2507 22.5155 68.972 24.0632C68.5942 24.5159 68.1438 24.9685 67.5771 25.0853C66.9232 25.2167 66.2694 24.8955 65.7463 24.4721C64.8745 23.7712 63.9736 22.6031 63.9881 21.435C64.0027 20.5005 64.5548 19.7996 65.0343 19.0549C65.5283 18.281 65.9642 17.4488 66.4292 16.6603C67.6643 14.5431 68.8848 12.4405 70.1199 10.3232C72.067 6.9795 74.014 3.63577 75.9611 0.292036C76.0192 0.204427 76.0628 0.102213 76.1209 0.0146046H70.0037L60.3846 15.7696C60.5299 15.5506 58.2777 11.7834 58.0016 11.4183C57.1298 10.2502 56.2725 9.05291 55.4007 7.8848C53.5263 5.34414 51.4049 2.00041 48.3681 0.81769C45.4329 -0.321225 41.9602 0.248232 39.2576 1.75218C38.8507 1.9712 38.4584 2.23403 38.1969 2.59907C37.9789 2.9057 37.8627 3.27074 37.8772 3.63577C37.8772 3.79639 37.9063 3.97161 38.008 4.10302C38.2259 4.36585 38.6328 4.30744 38.967 4.23443C40.8123 3.79638 42.3961 3.54816 44.2124 4.24903C45.8689 4.8915 47.2783 6.10342 48.2954 7.54897C50.4895 10.6445 52.5818 13.7984 54.4417 17.0983C56.0836 20.004 57.8273 23.0119 59.8906 25.6402C61.547 27.7428 63.7266 29.5972 66.3711 30.1082C68.5652 30.5171 70.8319 29.8892 72.6337 28.6189C74.1157 27.5676 74.9004 26.1074 75.8448 24.5889C76.8765 22.9243 77.9081 21.2597 78.9253 19.5952C80.5672 16.8939 82.1655 14.1926 83.7493 11.4622C85.3041 8.77549 87.0767 6.20563 88.7332 3.56276C89.5033 2.35084 90.2444 1.16812 90.9999 0Z" fill="white"/>
</svg>
