<svg width="152" height="42" viewBox="0 0 152 42" fill="none" xmlns="http://www.w3.org/2000/svg">
<path d="M0.680829 9.98438H3.67029C3.77674 9.98438 3.88319 10.0375 3.93642 10.1259L12.9137 23.7664C12.9137 23.7664 14.5193 25.8894 15.5838 23.7664C16.6483 22.1741 16.9144 22.4395 16.3822 21.9087C15.912 21.4488 10.5629 12.8859 9.21455 10.7363C9.08149 10.524 9.23229 10.2498 9.48954 10.2498H12.479C12.5855 10.2498 12.683 10.3028 12.7451 10.3913C13.7298 11.8066 14.7144 13.222 15.7169 14.6285C16.7104 16.035 17.7483 17.3708 18.5555 18.8923C18.591 18.9542 18.6265 19.0161 18.6886 19.0426C18.8039 19.0957 18.937 18.9984 19.0345 18.9011C19.5757 18.3173 19.9571 17.6096 20.4982 17.0258C21.9885 15.407 24.4369 15.0354 26.2909 16.2296C27.6658 17.1142 28.6416 18.4942 29.4666 19.9007C30.7529 22.0768 32.1012 24.2175 33.4496 26.3494C34.5407 28.0832 35.4544 30.2416 37.2197 31.427C37.7076 31.7543 38.2931 32.002 38.8697 31.8693C39.3753 31.7543 39.8011 31.3739 40.3422 31.4624C40.5196 31.4889 40.6971 31.5951 40.7591 31.7632C40.8479 31.9843 40.7148 32.232 40.564 32.4266C38.2132 35.3281 34.3367 33.0104 32.5093 30.8343C31.1964 29.2686 30.0166 27.5082 28.8456 25.8364C28.5707 25.4383 28.3045 24.9694 27.9763 24.5891C27.8521 24.4387 27.6215 24.421 27.4884 24.5714C27.0626 25.0314 26.7167 25.7921 26.3973 26.261C25.9183 26.9686 25.4481 27.6763 24.9691 28.384C23.8957 29.9763 22.9288 31.7278 21.4297 32.975C20.4273 33.8066 19.0345 34.1073 17.7571 33.8773C17.1096 33.7535 16.4886 33.497 15.9741 33.0989C15.708 32.8866 15.4064 32.5328 15.1757 32.1612C15.0249 31.9224 15.229 31.6216 15.5128 31.6747C16.0362 31.772 16.6926 31.8251 16.8789 31.8428C17.8015 31.9401 19.0079 31.7012 19.5934 30.9228C20.8264 29.2863 21.9442 27.5613 23.0175 25.8187C23.8957 24.3856 24.7473 22.9437 25.6078 21.5018C25.7231 21.2984 25.8473 21.0949 25.8739 20.8649C25.9183 20.5376 25.7586 20.2103 25.5546 19.9449C25.0135 19.2373 24.2506 18.4057 23.257 18.7861C22.7603 18.9719 22.37 19.3699 22.0329 19.7769C20.7377 21.3161 19.895 22.9791 18.9724 24.7483C18.4136 25.8275 17.6773 26.8802 16.5951 27.4286C15.2644 28.1098 13.5967 27.9063 12.2927 27.1809C10.3057 26.084 9.05487 23.9699 7.81296 22.1564C6.75733 20.6084 5.73719 19.0426 4.73479 17.4681C3.26223 15.1504 1.80742 12.8239 0.379222 10.4709C0.272772 10.2586 0.432447 9.98438 0.680829 9.98438Z" fill="#8E40FD"/>
<path d="M55.9012 9.71875H51.6343C51.6343 9.91336 51.244 10.338 51.1375 10.506C50.9424 10.8156 50.7472 11.1253 50.5521 11.4349C49.1505 13.6375 47.7312 15.8932 46.3296 18.1224C45.6909 19.1662 45.0256 20.2012 44.378 21.2451C43.7393 22.2712 43.2337 23.3592 42.453 24.2969C42.2224 24.5711 41.9474 24.8454 41.6014 24.9161C41.2022 24.9957 40.8031 24.8011 40.4837 24.5446C39.9515 24.12 39.4015 23.4123 39.4103 22.7046C39.4192 22.1385 39.7563 21.7139 40.049 21.2627C40.3506 20.7939 40.6168 20.2897 40.9006 19.812C41.6546 18.5293 42.3998 17.2555 43.1538 15.9729C44.3425 13.9471 45.5312 11.9214 46.7199 9.89567C46.7554 9.8426 46.782 9.78067 46.8175 9.7276H43.0829L37.2104 19.2724C37.2991 19.1397 35.9241 16.8574 35.7556 16.6363C35.2233 15.9286 34.6999 15.2033 34.1677 14.4956C33.0234 12.9564 31.7282 10.9307 29.8742 10.2141C28.0823 9.52414 25.9622 9.86914 24.3122 10.7803C24.0638 10.913 23.8243 11.0722 23.6646 11.2933C23.5316 11.4791 23.4606 11.7003 23.4695 11.9214C23.4695 12.0187 23.4872 12.1249 23.5493 12.2045C23.6824 12.3637 23.9308 12.3283 24.1348 12.2841C25.2614 12.0187 26.2283 11.8683 27.3372 12.2929C28.3484 12.6822 29.2089 13.4164 29.8299 14.2921C31.1694 16.1675 32.4467 18.0782 33.5822 20.0774C34.5846 21.8377 35.6491 23.66 36.9088 25.2523C37.92 26.5261 39.2507 27.6495 40.8652 27.9591C42.2046 28.2068 43.5885 27.8265 44.6885 27.0569C45.5933 26.4199 46.0723 25.5353 46.6489 24.6154C47.2787 23.6069 47.9086 22.5985 48.5295 21.59C49.5319 19.9535 50.5077 18.317 51.4746 16.6628C52.4238 15.0352 53.5061 13.4783 54.5173 11.8772C54.9875 11.143 55.4399 10.4264 55.9012 9.71875Z" fill="#8E40FD"/>
<path d="M48.837 37L60.6473 9.98302H69.6015L81.4118 37H71.9944L63.2718 14.3057H66.8226L58.1 37H48.837ZM55.8614 32.2913L58.1771 25.7301H70.605L72.9207 32.2913H55.8614Z" fill="#E3E3E3"/>
<path d="M85.2926 37L73.8682 9.98302H83.6715L92.9731 32.7931H87.1452L96.7169 9.98302H105.671L94.2468 37H85.2926Z" fill="#E3E3E3"/>
<path d="M111.382 37L99.9581 9.98302H109.761L119.063 32.7931H113.235L122.807 9.98302H131.761L120.337 37H111.382Z" fill="#E3E3E3"/>
<path d="M137.318 20.0179H149.36V26.5792H137.318V20.0179ZM137.935 30.13H151.444V37H128.981V9.98302H150.942V16.8531H137.935V30.13Z" fill="#E3E3E3"/>
</svg>
